[img]http://www.shotpix.com/images/27357594997767801884.jpg[/img]

GHOST RIDER SRIRIT OF VENGEANCE READ NFO CAM XVID INSPiRAL

IMDB:
 
http://www.imdb.com/title/tt1071875/

SOURCES:

VIDEO - FellFromTheSky

AUDIO - TrippedOverIt

SUBS  - None Add

Complete name                    : GhostRider2.CAM.XVID.INSPiRAL

Format                           : AVI

Format/Info                      : Audio Video Interleave

File size                        : 1.20 GiB

Duration                         : 1h 19mn

Overall bit rate                 : 2 160 Kbps

Writing application              : MEncoder SVN-r33823-4.1.2

Writing library                  : VirtualDub build 32842/release

Video

ID                               : 0

Format                           : MPEG-4 Visual

Format profile                   : Advanced Simple@L5

Format settings, BVOP            : 2

Format settings, QPel            : No

Format settings, GMC             : No warppoints

Format settings, Matrix          : Default (H.263)

Muxing mode                      : Packed bitstream

Codec ID                         : XVID

Codec ID/Hint                    : XviD

Duration                         : 1h 19mn

Bit rate                         : 2 024 Kbps

Width                            : 720 pixels

Height                           : 400 pixels

Display aspect ratio             : 16:9

Frame rate                       : 25.000 fps

Color space                      : YUV

Chroma subsampling               : 4:2:0

Bit depth                        : 8 bits

Scan type                        : Progressive

Compression mode                 : Lossy

Bits/(Pixel*Frame)               : 0.281

Stream size                      : 1.12 GiB (94%)

Writing library                  : XviD 64

Audio

ID                               : 1

Format                           : MPEG Audio

Format version                   : Version 1

Format profile                   : Layer 3

Mode                             : Joint stereo

Mode extension                   : MS Stereo

Codec ID                         : 55

Codec ID/Hint                    : MP3

Duration                         : 1h 16mn

Bit rate mode                    : Constant

Bit rate                         : 128 Kbps

Channel(s)                       : 2 channels

Sampling rate                    : 48.0 KHz

Compression mode                 : Lossy

Stream size                      : 70.3 MiB (6%)

Alignment                        : Aligned on interleaves

Interleave, duration             : 25 ms (0.62 video frame)

Interleave, preload duration     : 504 ms

Writing library                  : LAME3.98

NOTES:

WE have had this sitting on servers for over a week and was unsure if we should bother tbh, cam lovers are going to love it!

The vobs we where given(Thanks) where low res, almost like Journey 2 files:p but not so good. The audio - well the audio for

cam isnt to bad at all. As we said we wasnt going to rls this as we have been waiting for a nice video, we have been asked by

so many for this we thought what the hell- here you go, and remember - you asked for it. imho i would say video 4/10 audio 7/10.

Could have spent weeks on this, didnt see the point, got it lots better than it was but had to draw the line on time.Video had a

few cuts, sync done mainly by a friend :p saved us a job, i would say 95% in sync. - Dont moan, you have been warned.

Sample - Yes

Screens - 
 
http://i1044.photobucket.com/albums/b442/DarthMidal/qm8mj.png
 
http://i1044.photobucket.com/albums/b442/DarthMidal/0akLG.png
 
http://i1044.photobucket.com/albums/b442/DarthMidal/nzcFm.png
 
http://i1044.photobucket.com/albums/b442/DarthMidal/fKzUJ.png